<?xml version="1.0" encoding="utf-8"?>
<!-- Generator: Adobe Illustrator 19.2.1, SVG Export Plug-In . SVG Version: 6.00 Build 0)  -->
<svg version="1.1" id="Layer_1" xmlns="http://www.w3.org/2000/svg" xmlns:xlink="http://www.w3.org/1999/xlink" x="0px" y="0px"
	 viewBox="0 0 132.8 48.8" style="enable-background:new 0 0 132.8 48.8;" xml:space="preserve">
<style type="text/css">
	.st0{fill:#23315F;}
</style>
<g>
	<path class="st0" d="M19.5,1.6H3.4L3.3,23.4l6.1,0l0.1-7.7c0,0,5,0,8.8,0s7.8-1.9,7.8-7.6S19.5,1.6,19.5,1.6z M17.9,11.3H9.3V6.1
		c0,0,6.9,0,8.1,0s2.7,1.1,2.7,2.9S17.9,11.3,17.9,11.3z"/>
	<path class="st0" d="M32,23.4v-10c0,0-0.3-3.3,2.7-3.3H38v-4h-5.4c0,0-5.6,0.8-5.6,5.6c0,4.9,0,7.6,0,7.6S26.3,23.4,32,23.4z"/>
	<path class="st0" d="M52,6.6h-6.6c-3,0-5.4,2.3-5.4,5.2v6.4c0,2.9,2.4,5.2,5.4,5.2H52c3,0,5.4-2.3,5.4-5.2v-6.4
		C57.4,9,55,6.6,52,6.6z M52.8,16.9c0,1.3-1.1,2.3-2.4,2.3h-3.3c-1.3,0-2.4-1-2.4-2.3v-3.8c0-1.3,1.1-2.3,2.4-2.3h3.3
		c1.3,0,2.4,1,2.4,2.3V16.9z"/>
	<path class="st0" d="M123.5,6.6h-6.6c-3,0-5.4,2.3-5.4,5.2v6.4c0,2.9,2.4,5.2,5.4,5.2h6.6c3,0,5.4-2.3,5.4-5.2v-6.4
		C128.9,9,126.5,6.6,123.5,6.6z M124.3,16.9c0,1.3-1.1,2.3-2.4,2.3h-3.3c-1.3,0-2.4-1-2.4-2.3v-3.8c0-1.3,1.1-2.3,2.4-2.3h3.3
		c1.3,0,2.4,1,2.4,2.3V16.9z"/>
	<path class="st0" d="M59.3,1.8V19c0,0-0.4,4.4,3.4,4.4c3.8,0,8.3,0,8.3,0v-3.8h-3.6c0,0-2.2,0.2-2.2-2.9s0-6.6,0-6.6h5.8V6.4h-5.8
		V1.8H59.3z"/>
	<path class="st0" d="M110.4,6.3h-5.9l-6.6,7.2l0-11.7h-6.1v17.9H80.7c0,0-3.3,0.1-3.3-3.6h13.3c0,0,0.9-9.8-5.4-9.8s-7.9,0-7.9,0
		s-5.1,0.7-5.1,6.5s0,5.8,0,5.8s-0.1,4.8,4.8,4.8s21.1,0,21.1,0v-6.1l6.2,6.1h6l-7.5-8.4L110.4,6.3z M81.5,10.1
		c3.7,0,4.2,2.7,4.2,2.7h-8.4C77.3,12.8,77.8,10.1,81.5,10.1z"/>
	<rect x="2.4" y="30.5" class="st0" width="128.1" height="4.3"/>
</g>
</svg>
